{"title":"Takers.2010.BRRIP.720P.H264-ZEKTORM","uid":6053022,"size":2412248043,"categoryP":"video","categoryS":"hd___movies","magnet":"?xt=urn:btih:055cf5f831177a3cbec6d29d6824a32e862df4a8&amp;dn=Takers.2010.BRRIP.720P.H264-ZEKTORM&amp;tr=udp%3A%2F%2Ftracker.openbittorrent.com%3A80&amp;tr=udp%3A%2F%2Fopen.demonii.com%3A1337&amp;tr=udp%3A%2F%2Ftracker.coppersurfer.tk%3A6969&amp;tr=udp%3A%2F%2Fexodus.desync.com%3A6969","seeders":0,"leechers":0,"uploader":"blowley","files":4,"time":1292803603,"description":"Title                            : Takers\nYear                             : 2010\nGenre                            : Action | Crime | Thriller\niMDB URL                         : http://www.imdb.com/title/tt1135084/\n\nComplete name                    : Takers.2010.BRRIP.720P.H264-ZEKTORM.mp4\nFormat                           : MPEG-4\nFormat profile                   : Base Media\nCodec ID                         : isom\nFile size                        : 2.25 GiB\nDuration                         : 1h 47mn\nOverall bit rate                 : 3003 Kbps\nSubtitles                        : English (Format: srt)\n\nVideo\nID                               : 1\nFormat                           : AVC\nFormat/Info                      : Advanced Video Codec\nFormat profile                   : &lt;a class=&quot;__cf_email__&quot; href=&quot;/cdn-cgi/l/email-protection&quot; data-cfemail=&quot;7f371618173f334b514f&quot;&gt;[email&amp;#160;protected]&lt;/a&gt;&lt;script cf-hash='f9e31' type=&quot;text/javascript&quot;&gt;\n/* &lt;![CDATA[ */!function(){try{var t=&quot;currentScript&quot;in document?document.currentScript:function(){for(var t=document.getElementsByTagName(&quot;script&quot;),e=t.length;e--;)if(t[e].getAttribute(&quot;cf-hash&quot;))return t[e]}();if(t&amp;&amp;t.previousSibling){var e,r,n,i,c=t.previousSibling,a=c.getAttribute(&quot;data-cfemail&quot;);if(a){for(e=&quot;&quot;,r=parseInt(a.substr(0,2),16),n=2;a.length-n;n+=2)i=parseInt(a.substr(n,2),16)^r,e+=String.fromCharCode(i);e=document.createTextNode(e),c.parentNode.replaceChild(e,c)}}}catch(u){}}();/* ]]&gt; */&lt;/script&gt;\nFormat settings, CABAC           : Yes\nFormat settings, ReFrames        : 5 frames\nCodec ID                         : avc1\nCodec ID/Info                    : Advanced Video Coding\nDuration                         : 1h 47mn\nBit rate mode                    : Variable\nBit rate                         : 2557 Kbps\nWidth                            : 1280 pixels\nHeight                           : 528 pixels\nDisplay aspect ratio             : 2.424\nFrame rate mode                  : Constant\nFrame rate                       : 23.976 fps\nResolution                       : 24 bits\nColorimetry                      : 4:2:0\nScan type                        : Progressive\nBits/(Pixel*Frame)               : 0.158\nStream size                      : 1.91 GiB (85%)\nTitle                            : Video\nWriting library                  : x264\n\nAudio\nID                               : 2\nFormat                           : AAC\nFormat/Info                      : Advanced Audio Codec\nFormat version                   : Version 4\nFormat profile                   : LC\nFormat settings, SBR             : No\nCodec ID                         : 40\nDuration                         : 1h 47mn\nBit rate mode                    : Variable\nBit rate                         : 442 Kbps\nMaximum bit rate                 : 545 Kbps\nChannel(s)                       : 6 channels\nChannel positions                : Front: L C R, Rear: L R, LFE\nSampling rate                    : 48.0 KHz\nResolution                       : 16 bits\nStream size                      : 339 MiB (15%)\nLanguage                         : English\n\n\nScreenshots:\n &lt;a href=&quot;\nhttp://img258.imageshack.us/img258/7748/snapt1.png&quot; rel=&quot;nofollow&quot; target=&quot;_NEW&quot;&gt;\nhttp://img258.imageshack.us/img258/7748/snapt1.png&lt;/a&gt;\n &lt;a href=&quot;\nhttp://img88.imageshack.us/img88/9537/snapt2.png&quot; rel=&quot;nofollow&quot; target=&quot;_NEW&quot;&gt;\nhttp://img88.imageshack.us/img88/9537/snapt2.png&lt;/a&gt;\n &lt;a href=&quot;\nhttp://img832.imageshack.us/img832/2377/snapt3.png&quot; rel=&quot;nofollow&quot; target=&quot;_NEW&quot;&gt;\nhttp://img832.imageshack.us/img832/2377/snapt3.png&lt;/a&gt;\n &lt;a href=&quot;\nhttp://img249.imageshack.us/img249/586/snapt4.png&quot; rel=&quot;nofollow&quot; target=&quot;_NEW&quot;&gt;\nhttp://img249.imageshack.us/img249/586/snapt4.png&lt;/a&gt;","torrent":{"xt":"urn:btih:055cf5f831177a3cbec6d29d6824a32e862df4a8","amp;dn":"Takers.2010.BRRIP.720P.H264-ZEKTORM","amp;tr":["udp%3A%2F%2Ftracker.openbittorrent.com%3A80","udp%3A%2F%2Fopen.demonii.com%3A1337","udp%3A%2F%2Ftracker.coppersurfer.tk%3A6969","udp%3A%2F%2Fexodus.desync.com%3A6969"],"infoHash":"055cf5f831177a3cbec6d29d6824a32e862df4a8","infoHashBuffer":{"type":"Buffer","data":[5,92,245,248,49,23,122,60,190,198,210,157,104,36,163,46,134,45,244,168]},"announce":[],"urlList":[]}}